<!-- Generated by IcoMoon.io -->
<svg version="1.1" xmlns="http://www.w3.org/2000/svg" width="2414" height="1024" viewBox="0 0 2414 1024">
    <g id="icomoon-ignore">
</g>
    <path  d="M417.573 68.629c-4.582 0.004-9.413 0.008-13.94 0.548-52.637 4.391-101.006 26.75-135.452 67.485-37.487 44.329-46.553 91.033-46.114 147.469l-100.281-0.154c-4.492-0.004-9.135-0.133-13.844-0.263-13.084-0.361-26.674-0.737-38.93 1.508-7.391 1.355-13.841 4.949-19.039 10.36-9.101 9.473-9.322 21.441-8.73 33.7 0.933 19.332 2.593 38.687 4.251 58.020 0.902 10.518 1.804 21.037 2.588 31.541l16.644 215.065 8.098 103.857c0.399 5.127 0.718 10.306 1.037 15.505 1.144 18.587 2.304 37.445 7.211 55.229 8.477 30.234 25.278 57.476 48.487 78.637 20.284 18.417 44.802 31.56 71.379 38.245 22.48 5.424 48.596 4.811 73.127 4.235 7.303-0.173 14.463-0.341 21.346-0.345l252.906 0.010c6.442 0 13.072 0.158 19.785 0.317 21.778 0.518 44.477 1.058 64.828-3.686 28.63-6.663 57.601-22.382 78.503-43.105 19.45-19.294 34.99-45.055 41.781-71.671 5.196-20.362 6.499-42.696 7.765-64.36 0.407-6.984 0.81-13.903 1.34-20.66l11.065-142.438 13.798-174.893c0.669-8.638 1.533-17.369 2.399-26.118 1.875-18.963 3.767-38.069 3.723-56.81-0.020-11.527-2.461-22.282-10.721-30.843-5.683-5.898-14.977-8.779-22.84-10.062-11.788-1.922-24.714-1.578-37.217-1.248-4.623 0.123-9.188 0.244-13.616 0.249-31.539-0.061-63.089 0.050-94.626 0.332l-1.356 0.020c0.74-60.436-12.714-112.296-56.162-156.498-36.305-37.617-86.262-58.96-138.534-59.179l-0.661 0.001zM608.707 413.357l1.7 0.098c0.044 0.116 0.086 0.224 0.127 0.323 0.020 0.053 0.041 0.102 0.061 0.151 0.075 0.18 0.142 0.336 0.2 0.471l0.072 0.164c0.31 0.707 0.367 0.835 0.353 1.972-0.543 74.108-20.379 169.519-72.975 223.792-48.706 50.261-124.34 74.923-193.314 76.289 32.127-60.425 83.753-117.729 137.005-160.29 8.234-6.577 16.857-12.522 25.483-18.47 5.554-3.83 11.11-7.661 16.568-11.663 5.298-3.888 12.431-9.163 13.182-16.254 0.689-6.53-2.784-11.598-6.873-16.261-5.726-3.319-9.918-4.705-16.457-2.785-9.283 2.724-18.638 9.593-27.082 15.792-2.237 1.643-4.411 3.239-6.501 4.697-68.282 48.352-125.019 111.206-166.147 184.063-1.387-59.275 12.111-108.929 48.463-156.608 54.554-71.553 158.973-113.605 246.133-125.481zM78.653 321.099l677.441-0.010c-2.403 22.816-3.961 45.84-5.516 68.827-0.866 12.807-1.732 25.615-2.743 38.363l-18.242 228.58-6.82 84.233c-0.304 3.657-0.581 7.333-0.859 11.017-1.094 14.532-2.199 29.197-5.003 43.425-2.879 14.601-8.468 27.294-16.040 40.028-2.921 4.432-6.091 8.698-9.491 12.775-19.639 23.467-51.876 40.947-82.496 43.261-16.675 1.26-33.83 0.944-50.826 0.632-7.355-0.136-14.683-0.271-21.931-0.276l-252.387 0.010c-5.395 0.003-10.885 0.116-16.416 0.23-16.962 0.351-34.329 0.711-50.631-2.096-21.383-3.735-41.365-13.153-57.843-27.274-19.738-16.646-33.903-38.932-40.586-63.87-4.572-16.529-5.712-34.14-6.831-51.433-0.281-4.343-0.561-8.666-0.894-12.948l-6.652-85.704-25.234-327.771zM623.749 373.64l-0.505 0.054c-102.833 11.896-219.904 54.192-286.373 137.492-42.723 53.538-66.064 123.174-58.355 191.745 1.693 15.059 5.102 29.452 10.019 43.77-0.557 1.423-1.235 3.128-2.007 5.067-8.439 21.211-28.056 70.514-21.233 85.096 1.973 4.213 5.993 7.039 10.351 8.426 1.796 0.563 3.604 0.886 5.473 1.106 5.762-0.949 11.087-2.137 14.555-7.289 3.723-5.546 7.537-18.859 10.797-30.249 1.554-5.424 2.983-10.414 4.219-13.921 4.225-12.001 9.021-23.805 13.812-35.594l0.057-0.138c0.56-1.379 1.121-2.759 1.681-4.14 84.797 0.25 175.366-26.292 236.712-86.821 68.604-67.704 85.886-176.877 86.022-269.267 0.010-7.285-0.49-15.929-5.821-21.5-3.274-3.427-8.208-4.46-12.785-4.359-2.21 0.050-4.419 0.285-6.619 0.519zM409.328 105.681c3.284-0.203 6.58-0.387 9.866-0.364 40.278 0.283 80.609 18.297 108.914 46.684 38.538 38.653 46.422 79.669 46.506 132.133l-313.639 0.126c-1.27-45.095 5.993-86.284 35.578-121.893 28.422-34.207 68.984-52.774 112.776-56.686z"></path>
    <path  d="M610.405 413.455l-1.701-0.098c-87.158 11.875-191.577 53.927-246.132 125.481-36.352 47.679-49.85 97.333-48.463 156.608 41.128-72.856 97.865-135.712 166.147-184.063 2.090-1.458 4.264-3.056 6.501-4.697 8.442-6.2 17.799-13.068 27.082-15.793 6.539-1.918 10.732-0.534 16.457 2.787 4.089 4.664 7.562 9.731 6.873 16.261-0.75 7.090-7.885 12.366-13.182 16.252-5.458 4.004-11.014 7.835-16.568 11.665-8.626 5.948-17.249 11.893-25.483 18.47-53.252 42.56-104.878 99.865-137.005 160.29 68.974-1.366 144.608-26.029 193.314-76.289 52.596-54.273 72.432-149.685 72.975-223.792 0.015-1.137-0.042-1.267-0.353-1.973-0.075-0.17-0.167-0.376-0.272-0.633-0.059-0.14-0.121-0.297-0.189-0.474zM623.243 373.694l0.505-0.054c2.2-0.236 4.409-0.471 6.619-0.519 4.577-0.101 9.511 0.932 12.785 4.359 5.329 5.571 5.831 14.215 5.821 21.5-0.136 92.388-17.418 201.561-86.022 269.267-61.346 60.529-151.915 87.071-236.712 86.821-0.56 1.379-1.121 2.759-1.682 4.14l-0.056 0.138c-4.791 11.788-9.588 23.593-13.812 35.594-1.236 3.506-2.665 8.495-4.219 13.921-3.261 11.388-7.074 24.703-10.797 30.247-3.468 5.152-8.793 6.341-14.555 7.291-1.868-0.219-3.676-0.543-5.473-1.106-4.359-1.387-8.378-4.213-10.351-8.428-6.823-14.58 12.794-63.883 21.233-85.094 0.771-1.94 1.45-3.645 2.006-5.067-4.915-14.32-8.325-28.711-10.018-43.77-7.709-68.573 15.632-138.208 58.355-191.745 66.469-83.301 183.539-125.598 286.373-137.492z"></path>
    <path  d="M623.751 373.64l-0.503 0.054c-102.834 11.894-219.904 54.192-286.375 137.492-42.723 53.538-66.064 123.173-58.355 191.745 1.694 15.059 5.104 29.45 10.019 43.77-0.556 1.422-1.235 3.128-2.007 5.067-8.439 21.211-28.055 70.514-21.233 85.094 1.973 4.214 5.993 7.041 10.351 8.428 1.796 0.563 3.604 0.886 5.474 1.106 5.761-0.949 11.087-2.139 14.554-7.291 3.724-5.544 7.535-18.852 10.797-30.24 1.554-5.429 2.983-10.42 4.219-13.928 4.225-12.003 9.023-23.805 13.814-35.594 0.019-0.047 0.037-0.092 0.056-0.138 0.56-1.381 1.122-2.76 1.681-4.14 84.797 0.25 175.367-26.292 236.712-86.821 68.605-67.705 85.887-176.878 86.022-269.267 0.010-7.285-0.49-15.929-5.819-21.5-3.275-3.427-8.208-4.46-12.787-4.359-2.209 0.048-4.418 0.284-6.619 0.519zM608.708 413.357l1.7 0.098c0.069 0.177 0.132 0.334 0.19 0.474 0.107 0.259 0.196 0.464 0.271 0.633 0.312 0.707 0.369 0.837 0.353 1.973-0.541 74.107-20.379 169.519-72.975 223.792-48.704 50.261-124.338 74.923-193.312 76.289 32.126-60.425 83.751-117.729 137.004-160.29 8.236-6.577 16.857-12.522 25.483-18.47 5.554-3.83 11.112-7.661 16.568-11.665 5.298-3.887 12.433-9.162 13.183-16.252 0.689-6.53-2.785-11.598-6.873-16.261-5.726-3.321-9.918-4.705-16.459-2.787-9.283 2.725-18.638 9.593-27.080 15.793-2.237 1.641-4.412 3.239-6.502 4.697-68.28 48.35-125.017 111.206-166.145 184.063-1.388-59.275 12.11-108.929 48.463-156.608 54.554-71.554 158.973-113.605 246.132-125.481z"></path>
    <path  d="M1947.853 624.77c-2.575-72.84-63.707-129.796-136.528-127.238-72.85 2.548-129.829 63.696-127.269 136.536 2.575 72.852 63.722 129.82 136.558 127.248 72.85-2.582 129.799-63.716 127.239-136.546zM1815.903 537.129c21.255 0.862 38.473 5.97 54.667 20.316 19.31 17.082 30.076 41.762 31.481 67.325 1.419 25.587-6.641 51.523-24.049 70.583-15.916 17.418-35.767 25.215-59.026 26.378-21.226-0.221-38.736-3.525-55.486-17.453-19.558-16.267-30.618-40.353-32.695-65.486-2.15-26.134 4.681-53.153 22.031-73.201 17.218-19.874 37.537-26.716 63.078-28.461z"></path>
    <path  d="M1581.056 613.844c-8.675-72.433-74.503-124.062-146.906-115.241-72.217 8.796-123.679 74.399-115.022 146.634 8.659 72.236 74.167 123.816 146.42 115.299 72.441-8.552 124.197-74.272 115.507-146.692zM1438.375 538.2c21.13-1.723 40.267 0.5 58.113 12.775 20.041 13.777 32.636 35.059 36.805 58.832 4.725 26.994 0.278 55.864-15.96 78.355-14.219 19.699-31.978 29.474-55.651 33.243-21.62 1.106-40.719-0.209-58.927-13.090-19.637-13.836-32.869-35.002-36.703-58.715-4.413-26.157 0.873-56.26 16.488-78.019 13.723-19.118 32.882-29.718 55.834-33.382z"></path>
    <path  d="M2224.523 497.37c-0.658 0.023-1.287 0.070-1.946 0.152-33.221 3.92-63.137 20.002-84.012 46.368-23.845 30.101-32.022 68.267-27.312 106.013 3.847 33.151 20.816 63.381 47.104 83.965 31.13 24.191 70.612 30.334 109.085 25.075 22.25-3.049 55.706-13.707 69.939-32.231 3.994-5.202 6.012-11.555 5.091-18.117-0.644-4.607-2.677-9.017-6.466-11.845-4.359-3.246-10.181-3.654-15.36-2.642-7.197 1.404-13.648 5.854-19.763 10.076-1.302 0.889-2.575 1.769-3.833 2.607-26.873 13.963-56.671 20.527-86.221 10.949-21.021-6.922-38.4-22.015-48.172-41.889-5.105-10.158-7.636-20.944-9.889-32.010h126.786c5.281 0.007 10.942 0.189 16.764 0.374 15.038 0.483 31.13 0.999 44.398-1.375 3.789-0.674 7.387-2.699 10.138-5.376 6.232-6.074 7.344-14.672 7.153-22.968-0.702-31.766-15.623-63.102-38.736-84.593-26.683-24.819-58.865-34.15-94.749-32.534zM2228.429 537.060c19.251-2.257 38.663 2.654 54.521 13.812 18.959 13.474 28.906 32.603 32.9 55.119-16.077 0.193-32.168 0.149-48.26 0.105-8.031-0.022-16.077-0.044-24.108-0.037l-89.176 0.117c4.081-13.719 8.821-26.181 17.584-37.677 14.146-18.512 33.719-28.438 56.539-31.44z"></path>
    <path  d="M1518.343 403.077c47.587-1.129 95.437-0.082 143.053-0.162 27.136-0.047 61.776-2.247 88.108 0.465 4.242 0.442 7.621 1.64 10.84 4.456 4.579 4.004 7.636 10.043 7.797 16.163 0.132 5.527-3.248 11.868-7.241 15.579-3.043 2.816-6.671 3.945-10.693 4.596-10.957 1.769-23.055 0.733-34.187 0.721l-59.085-0.104-0.029 219.288c0.088 18.477 2.428 58.785-0.351 74.505-0.878 4.933-2.662 9.855-6.071 13.637-3.643 4.061-8.689 6.109-14.102 6.224-5.691 0.129-11.22-1.116-15.316-5.247-4.827-4.829-6.583-11.938-7.183-18.536-1.097-12.171-0.088-25.051 0.044-37.281 0.205-18.094 0.044-36.2 0.044-54.292l0.132-198.333c-19.646 0.094-87.669 3.223-101.595-3.095-5.091-2.304-8.28-5.865-10.138-11.159-1.96-5.632-1.068-11.636 1.77-16.802 3.335-6.050 7.782-8.645 14.204-10.623z"></path>
    <path  d="M1207.033 497.544c17.679-1.001 34.952 0.129 52.117 4.724 18.125 4.852 45.844 15.546 55.214 32.743 2.576 4.737 3.92 10.404 2.104 15.639-1.859 5.341-6.932 9.425-12.044 11.52-14.907 6.109-33.57-14.43-47.593-19.712-22.804-8.599-50.23-8.122-72.417 2.234-20.383 9.519-35.038 27.543-42.628 48.476-8.808 24.295-9.551 55.979 1.631 79.658 10.369 21.944 29.444 37.281 52.073 45.274 25.894 9.157 52.874 4.283 77.071-7.319 7.499-4.061 14.308-9.471 22.851-11.241 4.415-0.907 8.774-0.43 12.538 2.177 4.633 3.211 8.379 9.564 8.994 15.173 0.578 5.259-1.467 10.1-4.731 14.139-14.156 17.546-45.667 26.367-67.113 28.995-37.219 4.561-75.988-2.896-105.775-26.646-27.999-21.887-45.815-54.281-49.3-89.642-3.689-35.233 6.643-70.501 28.76-98.171 22.42-27.565 53.012-44.251 88.247-48.021z"></path>
    <path  d="M2001.979 430.952c0.746-0.034 1.477-0.069 2.209-0.092 6.597-0.209 13.224 1.559 17.891 6.422 11.132 11.625 6.7 50.79 6.583 66.825 15.141 0.094 52.005-4.62 63.356 5.481 4.111 3.664 5.793 8.738 5.793 14.149 0.029 5.247-1.331 10.275-5.222 13.975-10.62 10.053-48.933 6.097-63.956 6.004 0.132 32.208-4.213 131.485 5.705 155.92 16.048 39.516 50.834 4.76 70.671 14.103 4.242 2.001 7.724 6.224 9.304 10.623 2.224 6.26 0.234 11.856-2.326 17.604-0.453 0.49-0.892 0.967-1.331 1.444-11.981 12.485-34.509 15.487-51.039 15.72-19.178 0.279-37.332-2.978-51.493-17.174-10.24-10.263-16.603-24.343-19.734-38.352-4.813-21.643-2.823-45.602-2.809-67.675l0.059-92.179c-11.644-0.012-23.289-0.092-34.918-0.279-1.916-1.198-3.789-2.431-5.486-3.956-4.593-4.143-6.685-10.322-6.846-16.407-0.146-5.095 1.419-10.123 5.222-13.648 9.406-8.704 30.076-5.585 42.028-5.376-0.044-16.767-3.716-46.833 2.619-61.588 2.809-6.551 7.417-8.925 13.722-11.543z"></path>
    <path  d="M1078.809 424.678c-20.048-1.97-118.181-1.273-152.225-0.772-6.26 0.092-12.064 0.519-17.164 0.895-4.337 0.319-8.164 0.601-11.323 0.606 0 0-13.549 3.179-17.94 9.283-2.873 3.997-3.855 9.067-4.541 13.84-3.637 25.35-5.765 51.215-7.886 76.993-1.116 13.568-2.231 27.111-3.564 40.543l-12.911 130.311c-0.342 3.482-0.938 8.237-1.614 13.637-2.187 17.453-5.217 41.631-3.256 51.254 1.083 5.332 3.909 9.738 8.625 12.518 4.653 2.743 9.925 4.304 15.222 5.202h0.048c10.948-0.022 27.458 0.149 45.904 0.339 38.246 0.396 135.502 0.878 158.116-0.095 4.509-0.197 9.288-0.581 13.539-2.187 5.708-2.165 10.399-6.295 12.657-12.044 2.273-5.783 1.77-12.263-0.809-17.848-2.591-5.632-6.094-8.634-11.968-10.519h-195.474c3.262-28.78 6.178-57.594 8.748-86.442l2.308-23.45 0.224-2.324c1.527 0.020 3.539 0.050 5.927 0.086 19.909 0.3 116.812 0.998 129.159-0.843 4.532-0.674 8.764-1.815 12.080-5.155 4.291-4.329 6.074-10.309 5.718-16.312-0.3-5.097-2.556-10.647-6.429-14.080-2.586-2.281-5.79-3.758-9.209-4.235-11.54-1.679-97.693-1.224-119.441-0.945-5.834 0.075-10.68 0.138-13.812 0.142l9.908-116.906h105.488c5.379 0.004 10.982 0.183 16.669 0.366 13.767 0.44 28.036 0.898 40.839-1.087 4.554-0.698 8.458-2.257 11.761-5.573 4.045-4.061 6.258-10.205 5.948-15.906-0.317-5.818-3.448-11.358-7.999-14.928-3.467-2.724-6.981-3.945-11.325-4.364z"></path>
</svg>